HIERARCHY
ROOT Hips
{
  OFFSET 196.326 95.9168 97.7182
  CHANNELS 6 Xposition Yposition Zposition Zrotation Xrotation Yrotation
  JOINT LeftUpLeg
  {
    OFFSET 8.64259 1.95398 -2.38835
    CHANNELS 3 Zrotation Xrotation Yrotation
    JOINT LeftLeg
    {
      OFFSET 43.7702 0 0
      CHANNELS 3 Zrotation Xrotation Yrotation
      JOINT LeftFoot
      {
        OFFSET 40.6238 0 0
        CHANNELS 3 Zrotation Xrotation Yrotation
        JOINT LeftToeBase
        {
          OFFSET 12.7242 0 0
          CHANNELS 3 Zrotation Xrotation Yrotation
          End Site
          {
            OFFSET 0 0 0
          }
        }
      }
    }
  }
  JOINT RightUpLeg
  {
    OFFSET -8.2249 1.95398 -2.59336
    CHANNELS 3 Zrotation Xrotation Yrotation
    JOINT RightLeg
    {
      OFFSET 43.5653 0 0
      CHANNELS 3 Zrotation Xrotation Yrotation
      JOINT RightFoot
      {
        OFFSET 40.6238 0 0
        CHANNELS 3 Zrotation Xrotation Yrotation
        JOINT RightToeBase
        {
          OFFSET 12.7242 0 0
          CHANNELS 3 Zrotation Xrotation Yrotation
          End Site
          {
            OFFSET 0 0 0
          }
        }
      }
    }
  }
  JOINT Spine
  {
    OFFSET 0.165834 0.87714 6.61349
    CHANNELS 3 Zrotation Xrotation Yrotation
    JOINT Spine1
    {
      OFFSET 7.38963 1.71661e-005 0
      CHANNELS 3 Zrotation Xrotation Yrotation
      JOINT Spine2
      {
        OFFSET 11.9445 1.14441e-005 0
        CHANNELS 3 Zrotation Xrotation Yrotation
        JOINT Spine3
        {
          OFFSET 14.7254 4.19617e-005 0
          CHANNELS 3 Zrotation Xrotation Yrotation
          JOINT Spine4
          {
            OFFSET 10.9679 0 0
            CHANNELS 3 Zrotation Xrotation Yrotation
            JOINT RightShoulder
            {
              OFFSET 2.46616 -1.6653 3.69651
              CHANNELS 3 Zrotation Xrotation Yrotation
              JOINT RightArm
              {
                OFFSET 13.0012 0 0
                CHANNELS 3 Zrotation Xrotation Yrotation
                JOINT RightForeArm
                {
                  OFFSET 28.7848 1.52588e-005 0
                  CHANNELS 3 Zrotation Xrotation Yrotation
                  JOINT RightHand
                  {
                    OFFSET 26.5688 1.52588e-005 0
                    CHANNELS 3 Zrotation Xrotation Yrotation
                    End Site
                    {
                      OFFSET 0 0 0
                    }
                  }
                }
              }
            }
            JOINT LeftShoulder
            {
              OFFSET 2.38034 -1.29275 -3.75231
              CHANNELS 3 Zrotation Xrotation Yrotation
              JOINT LeftArm
              {
                OFFSET 16.3182 6.10351e-005 0
                CHANNELS 3 Zrotation Xrotation Yrotation
                JOINT LeftForeArm
                {
                  OFFSET 27.0901 0 0
                  CHANNELS 3 Zrotation Xrotation Yrotation
                  JOINT LeftHand
                  {
                    OFFSET 24.5451 1.52588e-005 0
                    CHANNELS 3 Zrotation Xrotation Yrotation
                    End Site
                    {
                      OFFSET 0 0 0
                    }
                  }
                }
              }
            }
            JOINT Neck
            {
              OFFSET 5.0226 -0.0266342 0
              CHANNELS 3 Zrotation Xrotation Yrotation
              JOINT Head
              {
                OFFSET 6.69363 2.86102e-005 0
                CHANNELS 3 Zrotation Xrotation Yrotation
                End Site
                {
                  OFFSET 0 0 0
                }
              }
            }
          }
        }
      }
    }
  }
}
MOTION
Frames:	9
Frame Time:	0.0416667
23.2437 89.4205 -55.3477 71.7206 -42.1018 76.1503 -175.549 14.3824 82.7552 -30.3198 10.9944 0.351092 67.1114 26.0186 32.2691 57.543 25.1852 -16.9104 -177.416 38.5417 90.0307 -74.0103 7.06706 -5.58639 55.5438 -1.61945 -0.882398 37.4161 0.802557 19.1191 -0.252528 7.2948 -89.8359 12.2855 -0.424152 0.37435 0.614516 -0.407255 0.392655 -21.921 -0.517043 0.229576 -1.90831 -0.517046 0.229571 82.2401 -50.9104 -112.237 22.637 -17.0402 20.9002 -14.4746 -3.61151 -72.5882 -25.244 -1.15553 0.643515 -98.9161 -40.223 61.77 -26.9258 6.9343 8.36848 13.5051 -5.50908 -93.9894 30.0664 3.24029 7.06489 19.033 -0.609223 0.107598 0.597878 -0.460099 2.52355 
17.1845 89.1023 -59.5516 74.8737 -44.3391 76.9466 -175.287 20.8864 82.3459 -38.6605 9.68614 0.0165132 65.9741 24.202 32.6262 58.7818 26.5172 -15.9172 -177.796 26.1163 88.0307 -70.9947 4.95995 -6.52341 51.2129 -0.294802 0.0715515 32.0929 -0.372419 16.9754 0.298904 7.58234 -89.7285 11.7077 0.72209 0.466979 0.0368807 0.741932 0.434751 -22.4985 0.548361 0.662405 -2.4859 0.548364 0.662412 82.2871 -50.5492 -112.295 21.8252 -15.8418 16.8912 -14.9782 -2.95193 -74.2742 -25.0227 -1.46044 2.12931 -99.8527 -41.4946 60.8324 -30.8841 6.44449 12.9234 12.1538 -2.92874 -84.808 29.6156 2.85622 5.88142 18.7018 -1.7669 1.32124 0.72828 -1.98411 1.88925 
11.6444 90.1586 -63.3836 74.4798 -47.4635 77.3104 -174.3 25.8091 84.1559 -40.0979 8.35765 -0.261189 67.3305 21.816 28.8816 62.1968 29.1552 -16.3263 -179.54 14.0283 87.4039 -58.3205 0.779356 -6.62371 47.9355 1.0881 1.2168 32.2681 -0.481244 21.2222 0.834678 7.51701 -89.8086 11.8395 1.75005 0.195042 0.169748 1.75695 0.117792 -22.3736 1.61049 0.712113 -2.36097 1.61051 0.712117 82.0857 -48.2901 -113.434 22.5843 -16.8539 13.6336 -13.6591 -1.05708 -77.5942 -24.8312 -1.49209 2.20395 -98.1858 -41.4952 63.4699 -35.7857 6.85655 18.671 11.0283 -0.174662 -76.1304 31.1628 2.97856 5.79155 17.0836 -2.35449 1.3455 1.59708 -2.49194 2.4364 
6.04923 91.0634 -67.1071 71.1187 -49.7863 74.3769 -174.049 31.1579 85.177 -38.7721 9.19401 -0.644731 66.0649 19.2446 26.6998 59.5931 30.0061 -8.28777 178.497 7.05098 85.897 -45.9201 -0.422507 -6.38183 51.6162 0.790307 0.895641 34.0057 -0.00539585 22.6789 1.14473 7.26557 -89.7692 12.3433 2.38439 0.191622 0.674561 2.39052 0.0864301 -21.8763 2.21652 0.899722 -1.86363 2.21651 0.899719 83.3559 -46.7843 -112.048 21.7003 -19.2174 8.52633 -17.9078 -0.831736 -81.5778 -22.5962 -1.28951 1.98159 -96.2446 -41.5129 66.5768 -40.0174 6.01932 24.0732 6.65609 -0.310014 -69.1752 32.1691 2.68101 4.50687 18.3968 -1.8862 2.2536 -0.675396 -2.40002 1.85808 
-0.166659 91.7905 -70.9747 69.0633 -52.2159 74.1712 -173.687 36.1198 88.716 -38.3127 8.60367 -0.676885 67.3532 15.4559 19.4955 56.5999 28.5832 -4.54785 178.678 2.3993 87.3122 -34.6297 -0.963886 -5.94737 51.6782 0.783791 0.883427 45.2173 3.23409 26.7607 1.35833 7.14877 -89.8751 12.5806 2.75796 -0.0721719 0.912595 2.75211 -0.19358 -21.6448 2.65204 0.760643 -1.63211 2.65205 0.760643 83.0344 -46.1476 -112.786 20.4532 -20.23 3.94118 -21.7451 0.933826 -86.367 -22.1018 -1.99761 6.03021 -95.4378 -40.6246 67.551 -42.6315 4.52828 28.5577 5.09642 0.398676 -60.8538 32.542 2.2514 3.08268 18.8684 -1.36416 2.58581 -0.815186 -2.01741 1.62976 
-6.65068 91.8268 -75.1152 66.4095 -54.2681 71.4761 -172.965 40.7555 90.3797 -36.9791 7.17761 -1.18827 68.5858 14.5692 16.9196 55.9236 28.4389 -3.11624 178.047 1.68934 87.5073 -27.6574 -1.00856 -4.83898 56.8711 -0.732721 -0.267929 58.3236 6.38672 22.6238 1.43116 7.17773 -89.7816 12.5211 2.94729 0.0949689 0.853507 2.94862 -0.0349634 -21.7063 2.78237 0.977048 -1.69366 2.78238 0.977051 83.2492 -45.8068 -112.58 19.1935 -19.3746 -1.48076 -23.0563 1.74383 -86.6975 -22.9138 -2.04752 6.01254 -96.1815 -40.4771 66.2889 -43.6474 4.87127 29.8209 4.32188 2.257 -51.2786 32.0743 2.26996 3.2427 20.2787 -0.547517 3.26074 -0.765657 -1.48424 1.39927 
-13.2975 91.8843 -79.1553 68.7807 -54.8844 71.3734 -171.326 41.0812 90.1621 -32.7028 5.26498 -2.15287 69.2112 14.5019 15.6076 56.178 28.4056 -3.9007 177.481 2.89512 87.4485 -28.0384 -1.01294 -4.68577 66.7854 -3.21831 -1.72185 59.6828 4.98088 14.3405 1.18169 7.4979 -89.598 11.8743 2.53907 0.529694 0.205759 2.55992 0.417369 -22.3451 2.26243 1.26864 -2.33248 2.26244 1.26864 82.4199 -46.3074 -113.683 17.5952 -17.5017 -4.99972 -22.0297 2.5957 -88.2445 -21.5303 -1.19849 1.83324 -97.2497 -41.4286 64.9349 -43.4554 7.44061 28.4699 1.09002 2.4714 -40.7755 29.6205 1.90396 2.57935 20.0465 0.137791 3.35247 0.796721 -0.797233 1.79149 
-18.8095 92.2411 -82.9314 72.927 -54.7803 73.4985 -170.713 39.0431 90.2127 -26.7374 5.8393 -2.82606 66.2182 12.2523 16.5511 59.0463 31.3461 -3.65156 176.73 3.67664 87.6392 -28.1218 2.2511 -3.6902 74.0946 -5.2294 -2.49762 54.7319 4.32033 16.2358 0.959535 7.77036 -89.5644 11.3285 2.11255 0.656766 -0.340827 2.1394 0.563117 -22.8856 1.81748 1.26147 -2.87292 1.81747 1.26147 81.3264 -47.407 -114.934 16.6141 -15.8474 -4.50611 -20.7781 2.45554 -86.7886 -24.1121 -1.27557 1.54011 -98.6499 -42.0807 62.9734 -43.0437 9.73526 25.5286 1.02969 8.2919 -31.1696 24.9442 1.73621 3.10575 18.3417 0.417592 2.99768 1.57933 -0.272249 2.99321 
-23.3311 92.6203 -85.99 73.8678 -54.6072 74.8433 -170.375 39.1784 91.7578 -26.3942 6.51419 -3.36689 63.3899 8.61345 15.9171 58.3044 30.7802 -3.22531 177.725 4.93208 90.4872 -26.39 9.73533 -2.70217 79.3535 -7.25923 -3.1755 47.0939 2.99093 18.4947 0.8385 7.7399 -89.698 11.3913 1.80938 0.419346 -0.27847 1.8261 0.339278 -22.8213 1.59969 0.943871 -2.80864 1.59969 0.943863 80.6568 -48.2842 -115.599 16.3888 -14.9539 -2.28384 -19.1309 0.852263 -84.2598 -25.1367 -1.62557 2.93575 -98.4333 -41.9979 63.2823 -42.1907 8.40018 24.484 1.94669 9.74693 -27.7665 15.6503 0.921028 2.02045 16.5605 0.346068 2.56653 1.53745 -0.158244 3.16777 
